# xmcd
#
# Track frame offsets:
#	150
#	21035
#	41862
#	57913
#	75681
#	90950
#	105801
#	123571
#	139544
#	154314
#	172355
#	199160
#	217718
#	232775
#	245112
#	267184
#	286268
#	304599
#	323348
#	341646
#
# Disc length: 4781 seconds
#
# Revision: 1
# Processed by: cddbd v1.5.2PL0 Copyright (c) Steve Scherf et al.
# Submitted via: audiograbber 1.83.01
#
DISCID=0b12ab14
DTITLE=Various Artist - 100x Liefde CD-3
DYEAR=2008
DGENRE=Pop
TTITLE0=Nelly Furtado - Try
TTITLE1=Gwen Stefani - 4 In The Morning
TTITLE2=Ronan Keating - If Tomorrow Never Comes
TTITLE3=ILse DeLange - The Great Escape
TTITLE4=Do - Angel By My Side
TTITLE5=Chad Kroeger Feat. Josy Scott - Hero
TTITLE6=Venessa Carlton - A Thousand Miles
TTITLE7=Buchshot Lefonque - Another Day
TTITLE8=Gabrielle - Out Of Reach
TTITLE9=Daniel Bedingfield - If You' Re not The One
TTITLE10=Level 42 - It's Over
TTITLE11=98 deg. Feat. Stevie Wonder - True To Your Heart
TTITLE12=Paul Weller - Wild Wood
TTITLE13=Michael McDonald - You Are Everything
TTITLE14=Elvis Costello Feat. Burt Bacharach - This House Is Empty Now
TTITLE15=Deep Blue Something - Breakfast At Tiffany's
TTITLE16=Wet Wet Wet - Julia Says
TTITLE17=Khaled - Aïcha
TTITLE18=Zucchero Feat. ILse DeLange - Blue
TTITLE19=Erykah Badu - Tyrone
EXTD=
EXTT0=
EXTT1=
EXTT2=
EXTT3=
EXTT4=
EXTT5=
EXTT6=
EXTT7=
EXTT8=
EXTT9=
EXTT10=
EXTT11=
EXTT12=
EXTT13=
EXTT14=
EXTT15=
EXTT16=
EXTT17=
EXTT18=
EXTT19=
PLAYORDER=
